<svg xmlns="http://www.w3.org/2000/svg" width="24" height="24" viewBox="0 0 24 24"><!--Boxicons v3.0.8 https://boxicons.com | License  https://docs.boxicons.com/free--><path d="M18.5 10H22v2h-3.5zm.05-1.17 1.5-1 1.5-1L21 6l-.55-.83-1.5 1-1.5 1L18 8zm0 4.34L18 14l-.55.83 1.5 1 1.5 1L21 16l.55-.83-1.5-1zM15 8.18V4c0-.37-.2-.71-.53-.88-.32-.17-.72-.16-1.03.05L7.69 7h-1.7c-2.21 0-4 1.79-4 4 0 1.52.86 2.82 2.1 3.5l1.94 6.77 1.92-.55-1.64-5.73h1.37l5.75 3.83c.17.11.36.17.55.17.16 0 .32-.04.47-.12.33-.17.53-.51.53-.88v-4.18c1.16-.41 2-1.51 2-2.82s-.84-2.4-2-2.82Z"/></svg>