<svg xmlns="http://www.w3.org/2000/svg" width="24" height="24" viewBox="0 0 24 24"><!--Boxicons v3.0.8 https://boxicons.com | License  https://docs.boxicons.com/free--><path d="M16.91 2.29a.996.996 0 0 0-1.41 0l-1.59 1.59-1.09-1.09a.996.996 0 0 0-1.41 0l-1.8 1.8a.996.996 0 0 0 0 1.41l3.49 3.49-3.59 3.59-3.49-3.49a.996.996 0 0 0-1.41 0l-1.8 1.8a.996.996 0 0 0 0 1.41l1.09 1.09-1.59 1.59a.996.996 0 0 0 0 1.41l4.8 4.8c.2.2.45.29.71.29s.51-.1.71-.29l1.59-1.59 1.09 1.09c.2.2.45.29.71.29s.51-.1.71-.29l1.8-1.8a.996.996 0 0 0 0-1.41l-3.49-3.49 3.59-3.59 3.49 3.49c.2.2.45.29.71.29s.51-.1.71-.29l1.8-1.8a.996.996 0 0 0 0-1.41l-1.09-1.09 1.59-1.59a.996.996 0 0 0 0-1.41l-4.8-4.8Z"/></svg>