<svg xmlns="http://www.w3.org/2000/svg" width="24" height="24" viewBox="0 0 24 24"><!--Boxicons v3.0.8 https://boxicons.com | License  https://docs.boxicons.com/free--><path d="M21.93 7.67a1 1 0 0 0-.07-.17c-.02-.03-.04-.05-.06-.08-.03-.04-.06-.09-.1-.13-.03-.03-.06-.04-.08-.07-.04-.03-.07-.06-.11-.09h-.01l-9.01-5a.99.99 0 0 0-.97 0l-9.01 5H2.5c-.04.02-.08.06-.11.09a.3.3 0 0 0-.08.07c-.04.04-.07.08-.1.13-.02.03-.04.05-.06.08-.03.05-.05.11-.07.17 0 .02-.02.05-.03.07-.02.08-.04.17-.04.26v8c0 .36.2.7.51.87l9 5s.1.04.14.06c.03.01.06.03.09.03a1.1 1.1 0 0 0 .5 0c.03 0 .06-.02.09-.03.05-.02.1-.03.14-.06l9-5c.32-.18.51-.51.51-.87V8c0-.09-.01-.18-.04-.26 0-.03-.02-.05-.03-.07ZM12 4.15l6.94 3.86-2.44 1.36-6.94-3.86zm-4.5 2.5 6.94 3.86L12 11.87 5.06 8.01zM20 15.42l-7 3.89V13.6l2.5-1.39v3.21l2-1.11V11.1L20 9.71z"/></svg>