<svg xmlns="http://www.w3.org/2000/svg" width="24" height="24" viewBox="0 0 24 24"><!--Boxicons v3.0.8 https://boxicons.com | License  https://docs.boxicons.com/free--><path d="M5 2H2v2h20V2zM4 20c0 1.1.9 2 2 2h12c1.1 0 2-.9 2-2V5H4zm8-6c-3.48 0-4-1.88-4-3 0-1.29 1.03-2.58 3-2.91V7h2v1.12c1.73.41 2.4 1.85 2.4 2.88h-1l-1 .02c-.01-.38-.22-1.02-1.4-1.02-1.3 0-2 .52-2 1 0 .37 0 1 2 1 3.48 0 4 1.88 4 3 0 1.29-1.03 2.58-3 2.91V19h-2v-1.08c-2.34-.37-3-2-3-2.92h2c.01.14.16 1 2 1 1.38 0 2-.58 2-1 0-.32 0-1-2-1"/></svg>