<svg xmlns="http://www.w3.org/2000/svg" width="24" height="24" viewBox="0 0 24 24"><!--Boxicons v3.0.8 https://boxicons.com | License  https://docs.boxicons.com/free--><path d="m17.32 2.87-2.36 2.37L13.73 4c-.78-.78-2.05-.78-2.83 0L8.96 5.95 2.3 12.59c-.19.19-.29.44-.29.71s.11.52.29.71l7.69 7.69c.2.2.45.29.71.29s.51-.1.71-.29l6.66-6.65 1.95-1.95c.78-.78.77-2.05 0-2.83l-1.23-1.23 2.43-2.44c.51-.51.79-1.19.79-1.91 0-.8-.36-1.56-.98-2.08-1.06-.89-2.69-.78-3.7.24Zm-6.63 16.72-6.28-6.28 5.24-5.24 6.28 6.28z"/></svg>