<svg xmlns="http://www.w3.org/2000/svg" width="24" height="24" viewBox="0 0 24 24"><!--Boxicons v3.0.8 https://boxicons.com | License  https://docs.boxicons.com/free--><path d="m20.77 10.16-1.37-4.1a2.99 2.99 0 0 0-2.85-2.05h-2.56v-1c0-.55-.45-1-1-1h-2c-.55 0-1 .45-1 1v1H7.43a3 3 0 0 0-2.85 2.05l-1.37 4.1c-.72.3-1.23 1.02-1.23 1.84v5a2 2 0 0 0 1 1.72V21c0 .55.45 1 1 1h1c.55 0 1-.45 1-1v-2h12v2c0 .55.45 1 1 1h1c.55 0 1-.45 1-1v-2.28a2 2 0 0 0 1-1.72v-5c0-.83-.51-1.54-1.23-1.84ZM19 14.5c0 .83-.67 1.5-1.5 1.5s-1.5-.67-1.5-1.5.67-1.5 1.5-1.5 1.5.67 1.5 1.5m-11 0c0 .83-.67 1.5-1.5 1.5S5 15.33 5 14.5 5.67 13 6.5 13s1.5.67 1.5 1.5M20 12v5zM7.44 6h9.12a1 1 0 0 1 .95.68L18.62 10H5.39L6.5 6.68A1 1 0 0 1 7.45 6Z"/></svg>