<svg xmlns="http://www.w3.org/2000/svg" width="24" height="24" viewBox="0 0 24 24"><!--Boxicons v3.0.8 https://boxicons.com | License  https://docs.boxicons.com/free--><path d="M11.5 6a1.5 1.5 0 1 0 0 3 1.5 1.5 0 1 0 0-3"/><path d="M12.42 2.02C12.27 2.01 12.13 2 12 2 6.49 2 2 6.49 2 12s4.26 9.76 9.58 9.98c.15.01.29.02.42.02 5.51 0 10-4.49 10-10s-4.26-9.76-9.58-9.98M11 16.5c0-.83.67-1.5 1.5-1.5s1.5.67 1.5 1.5-.67 1.5-1.5 1.5-1.5-.67-1.5-1.5M4 12c0-4.41 3.59-8 8-8h.21c.77.06 2.8.45 2.8 2.99 0 1.81-1.33 2.78-3.53 4.15-2.09 1.31-4.47 2.79-4.47 5.85 0 .49.05.94.14 1.34a7.97 7.97 0 0 1-3.14-6.34Z"/></svg>