<svg xmlns="http://www.w3.org/2000/svg" width="24" height="24" viewBox="0 0 24 24"><!--Boxicons v3.0.8 https://boxicons.com | License  https://docs.boxicons.com/free--><path d="M21.5 8H21V6c0-2.21-1.79-4-4-4H7C4.79 2 3 3.79 3 6v2h-.5c-.28 0-.5.22-.5.5v3c0 .28.22.5.5.5H3v6c0 .74.41 1.38 1 1.72v1.78c0 .28.22.5.5.5h2c.28 0 .5-.22.5-.5V20h10v1.5c0 .28.22.5.5.5h2c.28 0 .5-.22.5-.5v-1.78A2 2 0 0 0 21 18v-6h.5c.28 0 .5-.22.5-.5v-3c0-.28-.22-.5-.5-.5M19 18H5v-5h14zM5 11V8h6v3zm8 0V8h6v3zM7 4h10c1.1 0 2 .9 2 2H5c0-1.1.9-2 2-2"/><path d="M7.5 14a1.5 1.5 0 1 0 0 3 1.5 1.5 0 1 0 0-3m9 0a1.5 1.5 0 1 0 0 3 1.5 1.5 0 1 0 0-3"/></svg>