<svg xmlns="http://www.w3.org/2000/svg" width="24" height="24" viewBox="0 0 24 24"><!--Boxicons v3.0.8 https://boxicons.com | License  https://docs.boxicons.com/free--><path d="m21.45 6.11-6-3c-.26-.13-.56-.14-.83-.03l-12 5C2.25 8.24 2 8.6 2 9v8c0 .38.21.73.55.89l6 3c.14.07.29.11.45.11.13 0 .26-.03.38-.08l12-5c.37-.16.62-.52.62-.92V7c0-.38-.21-.73-.55-.89M14.96 5.1l3.64 1.82-9.56 3.98L5.4 9.08zM10 12.67l2-.83v5.83l-2 .83zM14 11l2-.83V16l-2 .83zm-10-.38 4 2v5.76l-4-2zm14 4.55V9.34l2-.83v5.83z"/></svg>