<svg xmlns="http://www.w3.org/2000/svg" width="24" height="24" viewBox="0 0 24 24"><!--Boxicons v3.0.8 https://boxicons.com | License  https://docs.boxicons.com/free--><path d="m19.4 12.04-1.22-3.67A2 2 0 0 0 16.28 7H7.72c-.86 0-1.62.55-1.9 1.37L4.6 12.04c-.91.19-1.6.99-1.6 1.96v3a2 2 0 0 0 1 1.72V21c0 .55.45 1 1 1h1c.55 0 1-.45 1-1v-2h10v2c0 .55.45 1 1 1h1c.55 0 1-.45 1-1v-2.28c.59-.35 1-.99 1-1.72v-3c0-.97-.69-1.77-1.6-1.96M5 14h14v3H5zm11.28-5 1 3H6.72l1-3zM4.79 7.87c.04.08.12.13.21.13s.17-.05.21-.13l.82-1.77 1.84-.89C7.95 5.17 8 5.09 8 5s-.05-.17-.13-.21L6.09 3.9 5.2 2.12c-.08-.16-.33-.16-.41 0L3.9 3.9l-1.78.89c-.08.04-.13.12-.13.21s.05.17.13.21l1.77.82.89 1.85Zm11.07-1.96c.03.05.08.09.14.09s.11-.04.14-.09l.54-1.18 1.23-.59c.05-.03.09-.08.09-.14a.15.15 0 0 0-.09-.14l-1.18-.59-.59-1.19c-.05-.1-.22-.1-.28 0l-.59 1.19-1.18.59c-.05.03-.09.08-.09.14s.04.11.09.14l1.18.55.59 1.23Zm4.87-.64-.59-1.19c-.05-.1-.22-.1-.28 0l-.59 1.19-1.18.59c-.05.03-.09.08-.09.14s.04.11.09.14l1.18.55.59 1.23c.03.05.08.09.14.09s.11-.04.14-.09l.54-1.18 1.23-.59c.05-.03.09-.08.09-.14a.15.15 0 0 0-.09-.14l-1.18-.59Z"/><path d="M7 14.5a1 1 0 1 0 0 2 1 1 0 1 0 0-2m10 0a1 1 0 1 0 0 2 1 1 0 1 0 0-2"/></svg>