<svg xmlns="http://www.w3.org/2000/svg" width="24" height="24" viewBox="0 0 24 24"><!--Boxicons v3.0.8 https://boxicons.com | License  https://docs.boxicons.com/free--><path d="M12 6c-.64 0-1.26.1-1.84.29C12.46 4.07 15.79 4 16 4V2c-.1 0-10 .11-10 10 0 .64.1 1.26.29 1.84C4.07 11.54 4 8.21 4 8H2c0 .1.11 10 10 10 .64 0 1.26-.1 1.84-.29C11.54 19.93 8.21 20 8 20v2c.1 0 10-.11 10-10 0-.64-.1-1.26-.29-1.84C19.93 12.46 20 15.79 20 16h2c0-.1-.11-10-10-10m0 10c-2.21 0-4-1.79-4-4s1.79-4 4-4 4 1.79 4 4-1.79 4-4 4"/><path d="M12 10a2 2 0 1 0 0 4 2 2 0 1 0 0-4"/></svg>