<svg xmlns="http://www.w3.org/2000/svg" width="24" height="24" viewBox="0 0 24 24"><!--Boxicons v3.0.8 https://boxicons.com | License  https://docs.boxicons.com/free--><path d="M14.04 16.86c-.11 0-.21.02-.31.02-.17-.56-.58-1.54-1.4-2.33.02-.12.12-1.21-.29-2.42.09-.08.17-.18.22-.29.03-.06.42-.94.45-2.11.69-.37 1.99-1.25 2.49-2.9.66-2.2-.57-4.25-.62-4.34-.25-.41-.75-.58-1.2-.42-.09.03-2.25.86-2.93 3.11-.03.12-.04.23-.07.34-.78-.48-1.47-.66-1.52-.68-.46-.11-.94.12-1.14.55-.04.08-.79 1.75-.27 3.58h-.43a.99.99 0 0 0-.9.86c-.01.09-.27 2.23 1.09 3.88-.06.02-.11.04-.12.05a1 1 0 0 0-.58 1.09c.02.1.45 2.44 2.47 3.5.38.2.77.33 1.15.4a.99.99 0 0 0-.03 1.17c.06.08 1.42 2.02 3.71 2.07h.1c2.21 0 3.73-1.78 3.79-1.86.29-.35.31-.84.06-1.21-.06-.08-1.42-2.02-3.71-2.07Zm-4.43-5.03c.44.46.63 1.04.7 1.52-.48-.1-1.04-.32-1.48-.78s-.62-1.04-.7-1.52c.48.1 1.04.32 1.48.78m2.76-6.08c.17-.58.54-1 .89-1.3.14.5.23 1.15.03 1.79-.17.58-.54 1-.89 1.3-.14-.5-.23-1.15-.03-1.79M9.29 7.18c.42.25.9.64 1.17 1.21.28.57.29 1.17.23 1.65-.42-.25-.9-.64-1.17-1.21-.28-.57-.29-1.17-.23-1.65m-.51 8.18c.49-.07 1.1-.05 1.66.24.55.29.91.79 1.12 1.22-.49.07-1.1.05-1.66-.24-.55-.29-.91-.79-1.12-1.22M13.85 20c-.61-.01-1.12-.3-1.49-.59.42-.29 1-.55 1.64-.56.61.02 1.12.3 1.49.59-.42.29-1 .55-1.64.56"/></svg>