<svg xmlns="http://www.w3.org/2000/svg" width="24" height="24" viewBox="0 0 24 24"><!--Boxicons v3.0.8 https://boxicons.com | License  https://docs.boxicons.com/free--><path d="M19.67 2.61c-.81-.81-2.14-.81-2.95 0L3.38 15.95c-.13.13-.22.29-.26.46l-1.09 4.34c-.08.34.01.7.26.95.19.19.45.29.71.29.08 0 .16 0 .24-.03l4.34-1.09c.18-.04.34-.13.46-.26L21.38 7.27c.81-.81.81-2.14 0-2.95L19.66 2.6ZM6.83 19.01l-2.46.61.61-2.46 9.96-9.94 1.84 1.84zM19.98 5.86 18.2 7.64 16.36 5.8l1.78-1.78s.09-.03.12 0l1.72 1.72s.03.09 0 .12"/></svg>