<svg xmlns="http://www.w3.org/2000/svg" width="24" height="24" viewBox="0 0 24 24"><!--Boxicons v3.0.8 https://boxicons.com | License  https://docs.boxicons.com/free--><path d="m17.32 2.87-2.36 2.37L13.73 4c-.38-.38-.88-.58-1.41-.58-.54 0-1.04.21-1.42.59L8.96 5.96 2.3 12.61c-.19.19-.29.44-.29.71s.11.52.29.71l7.69 7.69c.2.2.45.29.71.29s.51-.1.71-.29l6.66-6.65 1.94-1.95c.78-.78.78-2.05 0-2.83l-1.23-1.23 2.44-2.44c.51-.51.79-1.19.79-1.91 0-.8-.36-1.56-.98-2.08-1.06-.88-2.68-.78-3.7.24Zm-6.63 16.72-6.28-6.28 5.25-5.24 3.14 3.14 3.14 3.14-5.24 5.24Zm9.1-14.39-3.14 3.15a.996.996 0 0 0 0 1.41l1.93 1.93-1.24 1.24-3.14-3.14-3.14-3.14 1.24-1.24 1.94 1.94c.19.19.44.29.71.29s.52-.11.71-.29l3.07-3.08c.29-.29.74-.34 1-.12a.687.687 0 0 1 .05 1.03Z"/></svg>