<svg xmlns="http://www.w3.org/2000/svg" width="24" height="24" viewBox="0 0 24 24"><!--Boxicons v3.0.8 https://boxicons.com | License  https://docs.boxicons.com/free--><path d="M14.35 2.19C13.6 2.06 12.81 2 12 2 6.95 2 3 4.42 3 7.5v9c0 3.08 3.95 5.5 9 5.5s9-2.42 9-5.5v-9c0-2.55-2.68-4.69-6.65-5.31M12 20c-4.12 0-7-1.84-7-3.5v-5.51C6.64 12.22 9.14 13 12 13c2.02 0 3.93-.39 5.51-1.13.56-.26 1.06-.55 1.49-.87v5.5c0 1.66-2.88 3.5-7 3.5m4.67-9.94c-1.3.61-2.96.94-4.67.94-4.12 0-7-1.84-7-3.5S7.88 4 12 4c.7 0 1.37.06 2.03.17C16.91 4.62 19 6.02 19 7.5c0 .94-.87 1.89-2.33 2.56"/><path d="M12 5c-.47 0-.92.04-1.36.09.19.38.4.91.48 1.53.12.9-.03 2.11-1.13 3.21.62.11 1.3.18 2.01.18.14 0 .26-.01.4-.02 1.73-1.72 1.3-3.79.85-4.91-.4-.04-.82-.07-1.25-.07Zm2.46.27c.36 1.21.53 2.95-.57 4.56 2.1-.35 3.61-1.26 3.61-2.34 0-.98-1.25-1.81-3.04-2.23Zm-4.94.01C7.73 5.69 6.5 6.53 6.5 7.5c0 .83.9 1.56 2.27 2.01 2.03-1.55 1.16-3.54.75-4.23"/></svg>