<svg xmlns="http://www.w3.org/2000/svg" width="24" height="24" viewBox="0 0 24 24"><!--Boxicons v3.0.8 https://boxicons.com | License  https://docs.boxicons.com/free--><path d="M9 10c.55 0 1-.45 1-1V7h4.14c.45 1.72 2 3 3.86 3 2.21 0 4-1.79 4-4s-1.79-4-4-4c-1.86 0-3.41 1.28-3.86 3H10V3c0-.55-.45-1-1-1H3c-.55 0-1 .45-1 1v6c0 .55.45 1 1 1h2v4.09L1.79 17.3a.996.996 0 0 0 0 1.41l3.5 3.5c.2.2.45.29.71.29s.51-.1.71-.29L9.92 19h4.09v2c0 .55.45 1 1 1h6c.55 0 1-.45 1-1v-6c0-.55-.45-1-1-1h-6c-.55 0-1 .45-1 1v2H9.92l-2.91-2.91V10h2Zm9-6c1.1 0 2 .9 2 2s-.9 2-2 2-2-.9-2-2 .9-2 2-2m-2 12h4v4h-4zM6 20.09 3.91 18 6 15.91 8.09 18zM4 4h4v4H4z"/></svg>